<svg version="1.1" id="Layer_1" xmlns="http://www.w3.org/2000/svg" xmlns:xlink="http://www.w3.org/1999/xlink" x="0px" y="0px"
	 width="100%" viewBox="0 0 424 187" enable-background="new 0 0 424 187" xml:space="preserve">
<path fill="#000000" opacity="1.000000" stroke="none" 
	d="
M77.000000,1.000000 
	C192.952637,1.000000 308.905273,1.000000 424.928955,1.000000 
	C424.928955,63.260452 424.928955,125.521011 424.928955,187.890778 
	C283.666718,187.890778 142.333374,187.890778 1.000014,187.891266 
	C1.000000,150.573608 1.000000,113.255463 1.259778,75.454384 
	C1.688660,74.932877 1.857763,74.894302 2.390320,74.939713 
	C3.493325,74.967957 4.232878,74.912216 5.442008,74.913422 
	C27.619503,74.933266 49.327423,74.896149 71.419647,74.942932 
	C72.850548,74.969482 73.897141,74.912140 75.304779,74.907379 
	C76.060875,74.288284 76.455933,73.616608 76.935379,72.556610 
	C76.964371,71.117859 76.908974,70.067421 76.911530,68.550415 
	C76.979660,45.722569 76.989830,23.361284 77.000000,1.000000 
z"/>
<path fill="#DAAB46" opacity="1.000000" stroke="none" 
	d="
M1.000000,27.000000 
	C1.000000,21.645071 1.000000,16.290142 1.259595,10.473464 
	C1.692255,10.007900 1.865320,10.004084 2.394028,10.153493 
	C6.677610,10.205078 10.605432,10.021331 14.533510,10.015644 
	C34.270844,9.987067 54.008240,10.005015 73.917068,10.383759 
	C74.140762,15.819184 74.193008,20.877476 73.895065,25.952644 
	C70.675941,25.649387 67.806999,25.329254 64.694824,24.761679 
	C58.336632,22.673311 52.270283,20.617712 46.057068,19.210667 
	C45.064751,18.985945 43.414009,21.668695 41.797108,22.787689 
	C38.558823,21.770304 35.591084,20.972544 32.333687,19.932861 
	C30.968372,19.503166 29.792780,18.936529 28.833420,19.189600 
	C22.964430,20.737787 17.144464,22.471821 10.975470,24.109249 
	C10.420320,24.059061 10.197864,24.043549 9.861494,23.715040 
	C6.956612,20.137707 4.835123,21.000006 3.007554,24.417295 
	C2.500712,25.365017 1.677865,26.143740 1.000000,27.000000 
z"/>
<path fill="#CF9A36" opacity="1.000000" stroke="none" 
	d="
M1.000000,27.466118 
	C1.677865,26.143740 2.500712,25.365017 3.007554,24.417295 
	C4.835123,21.000006 6.956612,20.137707 9.863638,24.092257 
	C10.343066,26.190557 10.706438,27.598644 11.035959,29.005165 
	C11.002110,29.003599 11.011159,28.936434 11.139181,29.130268 
	C11.452399,29.574419 11.664784,29.799026 12.053690,30.203724 
	C12.463930,30.623072 12.724838,30.836620 13.112062,31.350859 
	C14.203634,32.527920 15.168892,33.404289 15.998938,34.637924 
	C15.595104,37.651955 15.326483,40.308723 14.668359,42.821579 
	C10.206188,42.454121 6.133521,42.230572 1.795654,42.003159 
	C1.353636,41.999527 1.176818,41.999763 1.000000,42.000000 
	C1.000000,37.310745 1.000000,32.621490 1.000000,27.466118 
z"/>
<path fill="#E2C872" opacity="1.000000" stroke="none" 
	d="
M2.038385,10.000268 
	C1.865320,10.004084 1.692255,10.007900 1.259595,10.005857 
	C1.000000,7.016503 1.000000,4.033006 1.000000,1.000000 
	C24.354206,1.000000 47.708447,1.000000 71.544769,1.351779 
	C72.311317,2.835305 72.595779,3.967053 72.506256,5.002402 
	C68.047112,4.277261 63.969135,3.167316 59.875488,3.106149 
	C45.061424,2.884796 30.241875,2.973957 15.424963,3.052659 
	C12.787899,3.066666 10.124350,3.432626 7.525291,3.916678 
	C4.251940,4.526313 2.130331,6.406973 2.038385,10.000268 
z"/>
<path fill="#CCC7B8" opacity="1.000000" stroke="none" 
	d="
M72.880249,5.098801 
	C72.595779,3.967053 72.311317,2.835305 72.013428,1.351779 
	C73.388893,1.000000 74.777779,1.000000 76.583344,1.000000 
	C76.989830,23.361284 76.979660,45.722569 76.714462,68.184784 
	C76.273262,58.588577 76.143288,48.889763 75.856003,39.195618 
	C75.794655,37.125443 75.162094,35.072193 74.787567,32.567928 
	C74.603394,30.061729 74.424324,27.998749 74.245255,25.935768 
	C74.193008,20.877476 74.140762,15.819184 73.995209,10.023088 
	C73.561348,7.889790 73.220795,6.494295 72.880249,5.098801 
z"/>
<path fill="#CC9F46" opacity="1.000000" stroke="none" 
	d="
M1.000000,42.468658 
	C1.176818,41.999763 1.353636,41.999527 1.789319,42.465839 
	C2.071511,46.961555 2.094838,50.990726 2.090352,55.460945 
	C2.074267,58.257099 2.085996,60.612198 2.076171,63.365044 
	C2.709562,66.378784 3.364507,68.994781 3.710560,71.594208 
	C2.601113,71.385101 1.800556,71.192551 1.000000,71.000000 
	C1.000000,61.645771 1.000000,52.291542 1.000000,42.468658 
z"/>
<path fill="#BBAD96" opacity="1.000000" stroke="none" 
	d="
M1.000000,71.375000 
	C1.800556,71.192551 2.601113,71.385101 4.038856,71.693275 
	C5.473517,72.186295 6.270992,72.563683 6.886086,73.158661 
	C6.126613,73.869659 5.549520,74.363060 4.972429,74.856476 
	C4.232878,74.912216 3.493325,74.967957 2.232837,74.780762 
	C1.462516,74.374542 1.225216,74.195267 1.000000,74.000000 
	C1.000000,73.250000 1.000000,72.500000 1.000000,71.375000 
z"/>
<path fill="#CCC7B8" opacity="1.000000" stroke="none" 
	d="
M1.000000,74.250000 
	C1.225216,74.195267 1.462516,74.374542 1.869383,74.696777 
	C1.857763,74.894302 1.688660,74.932877 1.259778,74.985725 
	C1.000000,75.000000 1.000000,74.500000 1.000000,74.250000 
z"/>
<path fill="#CCC7B8" opacity="1.000000" stroke="none" 
	d="
M5.442007,74.913422 
	C5.549520,74.363060 6.126613,73.869659 7.346784,73.179024 
	C27.973602,72.997597 47.957344,73.013397 68.170471,73.222801 
	C69.278351,73.897278 70.156845,74.378151 71.035339,74.859032 
	C49.327423,74.896149 27.619503,74.933266 5.442007,74.913422 
z"/>
<path fill="#BBAD96" opacity="1.000000" stroke="none" 
	d="
M71.419647,74.942932 
	C70.156845,74.378151 69.278351,73.897278 68.431732,72.989113 
	C72.800728,70.794182 74.413231,67.491394 73.943901,62.530251 
	C73.960625,59.392616 73.900146,56.696888 73.914795,53.545509 
	C73.941216,49.395153 73.892494,45.700443 73.914566,41.593273 
	C73.967140,39.787552 73.948921,38.394295 73.981216,36.657913 
	C74.285370,35.213573 74.539024,34.112358 74.792679,33.011147 
	C75.162094,35.072193 75.794655,37.125443 75.856003,39.195618 
	C76.143288,48.889763 76.273262,58.588577 76.656494,68.651352 
	C76.908974,70.067421 76.964371,71.117859 76.665634,72.652435 
	C75.855576,73.709312 75.399658,74.282051 74.943741,74.854790 
	C73.897141,74.912140 72.850548,74.969482 71.419647,74.942932 
z"/>
<path fill="#CCC7B8" opacity="1.000000" stroke="none" 
	d="
M75.304779,74.907379 
	C75.399658,74.282051 75.855576,73.709312 76.581238,73.040749 
	C76.455933,73.616608 76.060875,74.288284 75.304779,74.907379 
z"/>
<path fill="#E0B34C" opacity="1.000000" stroke="none" 
	d="
M72.506264,5.002401 
	C73.220795,6.494295 73.561348,7.889790 73.823753,9.645954 
	C54.008240,10.005015 34.270844,9.987067 14.533510,10.015644 
	C10.605432,10.021331 6.677610,10.205078 2.394028,10.153493 
	C2.130331,6.406973 4.251940,4.526313 7.525291,3.916678 
	C10.124350,3.432626 12.787899,3.066666 15.424963,3.052659 
	C30.241875,2.973957 45.061424,2.884796 59.875488,3.106149 
	C63.969135,3.167316 68.047112,4.277261 72.506264,5.002401 
z"/>
<path fill="#CC9F46" opacity="1.000000" stroke="none" 
	d="
M16.134150,34.280663 
	C15.168892,33.404289 14.203634,32.527920 13.500170,31.275238 
	C18.724602,29.612173 23.641212,28.089256 28.663843,27.110289 
	C33.006733,26.263813 34.273605,24.184809 32.623348,20.174784 
	C35.591084,20.972544 38.558823,21.770304 41.898491,23.131897 
	C43.614037,24.729643 44.822372,26.076048 46.330868,26.729057 
	C49.041245,27.902348 51.931812,28.659386 54.290009,29.718111 
	C50.261009,31.633692 46.689098,33.421509 42.934547,34.858185 
	C39.279194,34.432549 35.806477,34.358047 32.037666,34.145370 
	C25.293484,28.631395 22.564573,28.679211 16.134150,34.280663 
z"/>
<path fill="#CC9F46" opacity="1.000000" stroke="none" 
	d="
M74.787567,32.567928 
	C74.539024,34.112358 74.285370,35.213573 73.671631,36.492661 
	C72.175331,34.880905 71.429222,32.174038 69.822517,31.490734 
	C66.373756,30.024029 61.984444,33.125309 60.700344,36.764343 
	C59.124557,34.401478 57.766010,32.286201 56.814632,30.103495 
	C61.914207,31.615072 64.507339,29.971727 64.938057,25.009121 
	C67.806999,25.329254 70.675941,25.649387 73.895065,25.952644 
	C74.424324,27.998749 74.603394,30.061729 74.787567,32.567928 
z"/>
<path fill="#574932" opacity="1.000000" stroke="none" 
	d="
M64.694824,24.761679 
	C64.507339,29.971727 61.914207,31.615072 56.620068,30.009876 
	C55.594589,29.852577 55.170837,29.721462 54.747089,29.590347 
	C51.931812,28.659386 49.041245,27.902348 46.330868,26.729057 
	C44.822372,26.076048 43.614037,24.729643 42.169041,23.351524 
	C43.414009,21.668695 45.064751,18.985945 46.057068,19.210667 
	C52.270283,20.617712 58.336632,22.673311 64.694824,24.761679 
M52.285954,22.193119 
	C49.738701,21.852566 47.191448,21.512012 43.682102,21.042831 
	C44.595520,23.037949 44.733269,23.986486 45.133369,24.114403 
	C50.161572,25.721935 55.210129,27.276701 60.308968,28.636961 
	C60.871124,28.786934 62.238762,27.754955 62.392586,27.079739 
	C62.545403,26.408968 61.813786,25.011162 61.163933,24.775213 
	C58.529842,23.818821 55.777889,23.187029 52.285954,22.193119 
z"/>
<path fill="#574932" opacity="1.000000" stroke="none" 
	d="
M32.333687,19.932861 
	C34.273605,24.184809 33.006733,26.263813 28.663843,27.110289 
	C23.641212,28.089256 18.724602,29.612173 13.373854,30.974548 
	C12.724838,30.836620 12.463930,30.623072 12.003611,29.960194 
	C11.606558,29.227297 11.342212,29.035820 11.011159,28.936434 
	C11.011159,28.936434 11.002110,29.003599 11.050005,28.597393 
	C11.167988,26.842100 11.238075,25.493011 11.308163,24.143923 
	C17.144464,22.471821 22.964430,20.737787 28.833420,19.189600 
	C29.792780,18.936529 30.968372,19.503166 32.333687,19.932861 
M25.142221,21.522751 
	C21.812029,22.445274 18.422056,23.205849 15.191513,24.398333 
	C14.328323,24.716961 13.822386,26.314890 13.472629,27.426266 
	C13.409560,27.626669 15.037944,28.851393 15.666667,28.699251 
	C20.467201,27.537598 25.227926,26.199684 29.958323,24.774811 
	C30.548056,24.597176 31.391340,23.381639 31.237913,23.010056 
	C30.924150,22.250158 30.098091,21.400503 29.326244,21.204208 
	C28.264732,20.934242 27.057924,21.235582 25.142221,21.522751 
z"/>
<path fill="#CC9F46" opacity="1.000000" stroke="none" 
	d="
M10.975470,24.109249 
	C11.238075,25.493011 11.167988,26.842100 11.083855,28.598961 
	C10.706438,27.598644 10.343066,26.190557 9.977551,24.405254 
	C10.197864,24.043549 10.420320,24.059061 10.975470,24.109249 
z"/>
<path fill="#C8902A" opacity="1.000000" stroke="none" 
	d="
M73.843781,42.005737 
	C73.892494,45.700443 73.941216,49.395153 73.505287,53.535244 
	C67.764969,53.340279 62.520844,52.568878 57.249668,52.104588 
	C53.595570,51.782742 49.742718,51.467865 48.411922,56.367870 
	C48.303398,56.767467 46.830002,56.796379 46.128944,56.682915 
	C45.632793,54.950298 45.189468,52.452591 44.331249,52.300808 
	C40.574986,51.636490 36.616379,51.115875 32.905888,51.684036 
	C31.415176,51.912300 30.373472,55.072872 28.776205,56.805099 
	C26.186504,55.816784 23.954872,54.187504 21.708202,54.166500 
	C15.181420,54.105480 8.648611,54.689137 2.118165,55.019894 
	C2.094838,50.990726 2.071511,46.961555 2.054518,42.469704 
	C6.133521,42.230572 10.206188,42.454121 14.872128,43.077965 
	C16.981161,44.996235 18.496922,46.514210 20.269062,48.276897 
	C23.507845,50.402477 26.340940,50.604885 29.122751,47.535706 
	C30.685131,45.553329 32.029163,43.811501 33.761044,42.059174 
	C37.388836,43.041969 40.628780,44.035267 44.129284,45.189064 
	C45.279346,46.187374 46.168854,47.025185 47.271744,48.077423 
	C47.843586,48.478863 48.202045,48.665878 48.861683,48.781906 
	C49.774227,48.790623 50.385593,48.870319 51.174736,49.101410 
	C51.904308,49.141247 52.456108,49.029686 53.249519,48.850651 
	C53.820629,48.808167 54.150127,48.833149 54.756840,48.765377 
	C55.352825,48.456539 55.671593,48.240459 56.221619,47.790333 
	C57.989368,45.704250 59.525864,43.852211 61.520927,42.002083 
	C65.934258,42.004578 69.889015,42.005157 73.843781,42.005737 
z"/>
<path fill="#CCC7B8" opacity="1.000000" stroke="none" 
	d="
M33.373199,42.069672 
	C32.029163,43.811501 30.685131,45.553329 28.680515,47.586758 
	C25.350849,47.929630 22.681767,47.980907 20.012684,48.032181 
	C18.496922,46.514210 16.981161,44.996235 15.261631,43.221878 
	C15.326483,40.308723 15.595104,37.651955 15.998938,34.637924 
	C22.564573,28.679211 25.293484,28.631395 32.130062,34.564236 
	C32.803436,37.437405 33.088318,39.753540 33.373199,42.069672 
M29.470913,40.262646 
	C28.576124,35.153099 25.450598,32.638184 22.089752,34.801689 
	C20.482496,35.836346 18.990084,38.427483 19.053461,40.257984 
	C19.107458,41.817501 21.197121,44.067265 22.860241,44.643467 
	C25.830456,45.672523 28.291164,44.189442 29.470913,40.262646 
z"/>
<path fill="#CC9F46" opacity="1.000000" stroke="none" 
	d="
M11.139181,29.130268 
	C11.342212,29.035820 11.606558,29.227297 11.854279,29.754396 
	C11.664784,29.799026 11.452399,29.574419 11.139181,29.130268 
z"/>
<path fill="#BF831F" opacity="1.000000" stroke="none" 
	d="
M73.866692,62.972153 
	C74.413231,67.491394 72.800728,70.794182 68.202347,72.795517 
	C47.957344,73.013397 27.973602,72.997597 7.529164,72.961426 
	C6.270992,72.563683 5.473517,72.186295 4.347747,71.709839 
	C3.364507,68.994781 2.709562,66.378784 2.534398,63.374458 
	C26.631683,62.981468 50.249187,62.976810 73.866692,62.972153 
z"/>
<path fill="#C58920" opacity="1.000000" stroke="none" 
	d="
M73.943901,62.530251 
	C50.249187,62.976810 26.631683,62.981468 2.555952,62.976711 
	C2.085996,60.612198 2.074267,58.257099 2.090352,55.460945 
	C8.648611,54.689137 15.181420,54.105480 21.708202,54.166500 
	C23.954872,54.187504 26.186504,55.816784 28.748169,56.835045 
	C29.071331,56.958725 29.011646,56.904305 29.101803,57.005615 
	C29.191961,57.106930 29.548397,57.261349 29.548397,57.261349 
	C29.548397,57.261349 29.936085,57.189323 30.262325,57.135555 
	C31.027794,57.048077 31.467022,57.014366 32.325386,56.985069 
	C36.504509,56.993629 40.264496,56.997780 44.352261,56.996704 
	C45.116962,56.993500 45.553886,56.995518 45.990810,56.997536 
	C46.830002,56.796379 48.303398,56.767467 48.411922,56.367870 
	C49.742718,51.467865 53.595570,51.782742 57.249668,52.104588 
	C62.520844,52.568878 67.764969,53.340279 73.430145,53.990894 
	C73.900146,56.696888 73.960625,59.392616 73.943901,62.530251 
z"/>
<path fill="#CF9A36" opacity="1.000000" stroke="none" 
	d="
M73.914566,41.593273 
	C69.889015,42.005157 65.934258,42.004578 61.469204,41.589157 
	C60.945129,39.786858 60.931355,38.399395 60.917583,37.011936 
	C61.984444,33.125309 66.373756,30.024029 69.822517,31.490734 
	C71.429222,32.174038 72.175331,34.880905 73.621117,36.835785 
	C73.948921,38.394295 73.967140,39.787552 73.914566,41.593273 
z"/>
<path fill="#CCC7B8" opacity="1.000000" stroke="none" 
	d="
M60.700344,36.764343 
	C60.931355,38.399395 60.945129,39.786858 61.010628,41.587242 
	C59.525864,43.852211 57.989368,45.704250 55.932838,47.851406 
	C55.101742,48.383724 54.790684,48.620926 54.479622,48.858131 
	C54.150127,48.833149 53.820629,48.808167 52.915207,48.792671 
	C51.891842,48.851448 51.444405,48.900734 50.996964,48.950016 
	C50.385593,48.870319 49.774227,48.790623 48.670227,48.534554 
	C47.804520,48.193123 47.431438,48.028061 47.058357,47.862999 
	C46.168854,47.025185 45.279346,46.187374 44.036163,44.844711 
	C43.494053,41.296352 43.305618,38.252838 43.117184,35.209324 
	C46.689098,33.421509 50.261009,31.633692 54.290009,29.718111 
	C55.170837,29.721462 55.594589,29.852577 56.212902,30.077311 
	C57.766010,32.286201 59.124557,34.401478 60.700344,36.764343 
M50.054420,44.720142 
	C53.974709,45.361004 56.962818,43.945610 56.835995,39.836281 
	C56.777782,37.950127 54.679653,35.218807 52.892971,34.575825 
	C51.411343,34.042622 48.329266,35.480633 47.197735,36.981415 
	C45.040363,39.842800 46.375053,42.571648 50.054420,44.720142 
z"/>
<path fill="#CC9A3E" opacity="1.000000" stroke="none" 
	d="
M42.934547,34.858185 
	C43.305618,38.252838 43.494053,41.296352 43.775604,44.684216 
	C40.628780,44.035267 37.388836,43.041969 33.761044,42.059174 
	C33.088318,39.753540 32.803436,37.437405 32.426159,34.702408 
	C35.806477,34.358047 39.279194,34.432549 42.934547,34.858185 
z"/>
<path fill="#3A3F4E" opacity="1.000000" stroke="none" 
	d="
M52.677689,22.314304 
	C55.777889,23.187029 58.529842,23.818821 61.163933,24.775213 
	C61.813786,25.011162 62.545403,26.408968 62.392586,27.079739 
	C62.238762,27.754955 60.871124,28.786934 60.308968,28.636961 
	C55.210129,27.276701 50.161572,25.721935 45.133369,24.114403 
	C44.733269,23.986486 44.595520,23.037949 43.682102,21.042831 
	C47.191448,21.512012 49.738701,21.852566 52.677689,22.314304 
z"/>
<path fill="#3A3F4E" opacity="1.000000" stroke="none" 
	d="
M25.527794,21.407450 
	C27.057924,21.235582 28.264732,20.934242 29.326244,21.204208 
	C30.098091,21.400503 30.924150,22.250158 31.237913,23.010056 
	C31.391340,23.381639 30.548056,24.597176 29.958323,24.774811 
	C25.227926,26.199684 20.467201,27.537598 15.666667,28.699251 
	C15.037944,28.851393 13.409560,27.626669 13.472629,27.426266 
	C13.822386,26.314890 14.328323,24.716961 15.191513,24.398333 
	C18.422056,23.205849 21.812029,22.445274 25.527794,21.407450 
z"/>
<path fill="#574932" opacity="1.000000" stroke="none" 
	d="
M46.128944,56.682919 
	C45.553886,56.995518 45.116962,56.993500 44.126778,56.730652 
	C39.554455,53.671459 35.652355,53.544582 31.906250,56.980656 
	C31.467022,57.014366 31.027794,57.048077 30.040085,57.035606 
	C29.491606,56.989426 29.011646,56.904305 29.011646,56.904305 
	C29.011646,56.904305 29.071331,56.958725 29.099369,56.928780 
	C30.373472,55.072872 31.415176,51.912300 32.905888,51.684036 
	C36.616379,51.115875 40.574986,51.636490 44.331249,52.300808 
	C45.189468,52.452591 45.632793,54.950298 46.128944,56.682919 
z"/>
<path fill="#CC9F46" opacity="1.000000" stroke="none" 
	d="
M20.269062,48.276897 
	C22.681767,47.980907 25.350849,47.929630 28.462170,47.827301 
	C26.340940,50.604885 23.507845,50.402477 20.269062,48.276897 
z"/>
<path fill="#CC9A3E" opacity="1.000000" stroke="none" 
	d="
M51.174736,49.101410 
	C51.444405,48.900734 51.891842,48.851448 52.673592,48.860142 
	C52.456108,49.029686 51.904308,49.141247 51.174736,49.101410 
z"/>
<path fill="#CC9A3E" opacity="1.000000" stroke="none" 
	d="
M47.271740,48.077423 
	C47.431438,48.028061 47.804520,48.193123 48.369057,48.605537 
	C48.202045,48.665878 47.843586,48.478863 47.271740,48.077423 
z"/>
<path fill="#CC9A3E" opacity="1.000000" stroke="none" 
	d="
M54.756840,48.765377 
	C54.790684,48.620926 55.101742,48.383724 55.701584,48.085449 
	C55.671593,48.240459 55.352825,48.456539 54.756840,48.765377 
z"/>
<path fill="#3A3F4E" opacity="1.000000" stroke="none" 
	d="
M29.406643,40.623512 
	C28.291164,44.189442 25.830456,45.672523 22.860241,44.643467 
	C21.197121,44.067265 19.107458,41.817501 19.053461,40.257984 
	C18.990084,38.427483 20.482496,35.836346 22.089752,34.801689 
	C25.450598,32.638184 28.576124,35.153099 29.406643,40.623512 
z"/>
<path fill="#C8902A" opacity="1.000000" stroke="none" 
	d="
M32.325386,56.985069 
	C35.652355,53.544582 39.554455,53.671459 43.799004,56.735878 
	C40.264496,56.997780 36.504509,56.993629 32.325386,56.985069 
z"/>
<path fill="#C8902A" opacity="1.000000" stroke="none" 
	d="
M29.101803,57.005615 
	C29.011646,56.904305 29.491606,56.989426 29.713844,57.089375 
	C29.936085,57.189323 29.548397,57.261349 29.548397,57.261349 
	C29.548397,57.261349 29.191961,57.106930 29.101803,57.005615 
z"/>
<path fill="#3A3F4E" opacity="1.000000" stroke="none" 
	d="
M49.707558,44.561913 
	C46.375053,42.571648 45.040363,39.842800 47.197735,36.981415 
	C48.329266,35.480633 51.411343,34.042622 52.892971,34.575825 
	C54.679653,35.218807 56.777782,37.950127 56.835995,39.836281 
	C56.962818,43.945610 53.974709,45.361004 49.707558,44.561913 
z"/>
</svg>